<svg clip-rule="evenodd" fill-rule="evenodd" stroke-linecap="round" stroke-linejoin="round" stroke-miterlimit="1.5" viewBox="0 0 1000 1000" xmlns="http://www.w3.org/2000/svg"><g fill-rule="nonzero" transform="matrix(2.24742 0 0 2.24742 -60.6085 -61.714)"><path d="m199 325.6 131-75.6-131-75.6z"/><path d="m203.8 334.3c38.2-22.1 76.5-44.2 114.7-66.2 5.4-3.1 10.8-6.3 16.3-9.4 6.5-3.7 6.5-13.5 0-17.3-38.2-22.1-76.5-44.2-114.7-66.2-5.4-3.1-10.8-6.3-16.3-9.4-6.6-3.8-15 1-15 8.6v151.3c0 12.9 20 12.9 20 0v-151.3c-5 2.9-10 5.8-15 8.6 38.2 22.1 76.5 44.2 114.7 66.2 5.4 3.1 10.8 6.3 16.3 9.4v-17.3c-38.2 22.1-76.5 44.2-114.7 66.2-5.4 3.1-10.8 6.3-16.3 9.4-11.2 6.5-1.1 23.8 10 17.4z"/></g><path d="m433.1 250c-.3 76.1-48.6 146.6-120.5 172.6-36.3 13.1-76.2 14.7-113.4 4.1-35.8-10.2-67.7-31.3-91.4-59.9-49.4-59.3-55.2-146.4-15.2-212.1 39.6-65.2 118-100 192.9-84.8 74.9 15.1 133.6 76.6 145.5 152.3 1.5 9.2 2 18.5 2.1 27.8 0 12.9 20 12.9 20 0-.1-41.8-13-83.4-37.3-117.5-24.2-33.7-57.8-59.5-96.7-73.9-79.6-29.4-172.6-4-226.4 61.4-26.8 32.6-43 72.4-46.3 114.5-3.3 42 6.9 84.8 28.8 120.8 21.1 34.7 52.8 63.2 89.9 79.9 39.3 17.7 83.3 22.7 125.6 14.1 81.7-16.5 147.5-85.2 159.9-167.7 1.6-10.5 2.5-21.1 2.5-31.8 0-12.7-20-12.7-20 .2z" fill-rule="nonzero" transform="matrix(2.24742 0 0 2.24742 -60.6085 -61.714)"/><circle cx="338.0677" cy="224.8226" r="25.636"/><circle cx="228.77" cy="350.51" r="25.636"/><circle cx="475.225" cy="287.5743" r="25.636"/><circle cx="609.933" cy="236.303" r="25.636"/><circle cx="743.582" cy="338.846" r="25.636"/><path d="m93.691 376.146 135.079-25.636 109.298-125.687 137.157 62.751 134.708-51.271 135.16 114.207 138.192-62.936" fill="none" stroke="#000" stroke-width="10"/></svg>